<?xml version='1.0' encoding='ASCII' standalone='yes'?>
<svg xmlns="http://www.w3.org/2000/svg" xmlns:xlink="http://www.w3.org/1999/xlink" version="1.1" width="86.3092mm" viewBox="0 0 86.3092 41.75" height="41.75mm">
  <g>
    <g transform="translate(0, 0.0) scale(1 1) "><title>SVG Image created as temp_b.svg date 2026/03/14 16:11:53 </title>
  <desc>Image generated by PCBNEW </desc>
<g style="fill:#000000; fill-opacity:1.0000;stroke:#000000; stroke-opacity:1.0000; stroke-linecap:round; stroke-linejoin:round;" transform="translate(0 0) scale(1 1)">
</g>
<g style="fill:#000000; fill-opacity:1.0000;  stroke:#000000; stroke-width:0.0212; stroke-opacity:1;  stroke-linecap:round; stroke-linejoin:round;">
<rect x="-5.000000" y="-5.000000" width="96.327382" height="41.752382" rx="0.000000"/>
<path style="fill:#FFFFFF; fill-opacity:1.0000; stroke:none;fill-rule:evenodd;" d="M 60.5500,6.8500 60.5690,6.7543 60.6232,6.6732 60.7043,6.6190 60.8000,6.6000 62.9000,6.6000 62.9957,6.6190 63.0768,6.6732 63.1310,6.7543 63.1500,6.8500 63.1500,8.9500 63.1310,9.0457 63.0768,9.1268 62.9957,9.1810 62.9000,9.2000 60.8000,9.2000 60.7043,9.1810 60.6232,9.1268 60.5690,9.0457 60.5500,8.9500 Z"/> 
</g>
<g style="fill:#FFFFFF; fill-opacity:1.0000; stroke:none;">
<circle cx="66.8500" cy="7.9000" r="1.3000"/> 
<path style="fill:#FFFFFF; fill-opacity:1.0000; stroke:none;fill-rule:evenodd;" d="M 64.3250,23.5000 64.2293,23.4810 64.1482,23.4268 64.0940,23.3457 64.0750,23.2500 64.0750,22.0500 64.0940,21.9543 64.1482,21.8732 64.2293,21.8190 64.3250,21.8000 65.8250,21.8000 65.9207,21.8190 66.0018,21.8732 66.0560,21.9543 66.0750,22.0500 66.0750,23.2500 66.0560,23.3457 66.0018,23.4268 65.9207,23.4810 65.8250,23.5000 Z"/> 
</g>
<g style="fill:none;  stroke:#FFFFFF; stroke-width:1.7000; stroke-opacity:1;  stroke-linecap:round; stroke-linejoin:round;">
<path d="M64.9250 20.1500 L65.2250 20.1500 "/>
<path style="fill:#FFFFFF; fill-opacity:1.0000; stroke:none;fill-rule:evenodd;" d="M 72.6500,11.4000 72.6690,11.3043 72.7232,11.2232 72.8043,11.1690 72.9000,11.1500 74.1000,11.1500 74.1957,11.1690 74.2768,11.2232 74.3310,11.3043 74.3500,11.4000 74.3500,12.9000 74.3310,12.9957 74.2768,13.0768 74.1957,13.1310 74.1000,13.1500 72.9000,13.1500 72.8043,13.1310 72.7232,13.0768 72.6690,12.9957 72.6500,12.9000 Z"/> 
</g>
<g style="fill:none;  stroke:#FFFFFF; stroke-width:1.7000; stroke-opacity:1;  stroke-linecap:round; stroke-linejoin:round;">
<path d="M76.0000 12.0000 L76.0000 12.3000 "/>
<path style="fill:#FFFFFF; fill-opacity:1.0000; stroke:none;fill-rule:evenodd;" d="M 10.0250,12.7500 9.9293,12.7310 9.8482,12.6768 9.7940,12.5957 9.7750,12.5000 9.7750,11.8000 9.7940,11.7043 9.8482,11.6232 9.9293,11.5690 10.0250,11.5500 11.2750,11.5500 11.3707,11.5690 11.4518,11.6232 11.5060,11.7043 11.5250,11.8000 11.5250,12.5000 11.5060,12.5957 11.4518,12.6768 11.3707,12.7310 11.2750,12.7500 Z"/> 
</g>
<g style="fill:none;  stroke:#FFFFFF; stroke-width:1.2000; stroke-opacity:1;  stroke-linecap:round; stroke-linejoin:round;">
<path d="M10.3750 10.1500 L10.9250 10.1500 "/>
<path d="M10.3750 8.1500 L10.9250 8.1500 "/>
<path d="M10.3750 6.1500 L10.9250 6.1500 "/>
<path style="fill:#FFFFFF; fill-opacity:1.0000; stroke:none;fill-rule:evenodd;" d="M 56.2250,19.2500 56.3207,19.2690 56.4018,19.3232 56.4560,19.4043 56.4750,19.5000 56.4750,20.7000 56.4560,20.7957 56.4018,20.8768 56.3207,20.9310 56.2250,20.9500 54.7250,20.9500 54.6293,20.9310 54.5482,20.8768 54.4940,20.7957 54.4750,20.7000 54.4750,19.5000 54.4940,19.4043 54.5482,19.3232 54.6293,19.2690 54.7250,19.2500 Z"/> 
</g>
<g style="fill:none;  stroke:#FFFFFF; stroke-width:1.7000; stroke-opacity:1;  stroke-linecap:round; stroke-linejoin:round;">
<path d="M55.6250 22.6000 L55.3250 22.6000 "/>
<path style="fill:#FFFFFF; fill-opacity:1.0000; stroke:none;fill-rule:evenodd;" d="M 72.6500,19.7500 72.6690,19.6543 72.7232,19.5732 72.8043,19.5190 72.9000,19.5000 74.1000,19.5000 74.1957,19.5190 74.2768,19.5732 74.3310,19.6543 74.3500,19.7500 74.3500,21.2500 74.3310,21.3457 74.2768,21.4268 74.1957,21.4810 74.1000,21.5000 72.9000,21.5000 72.8043,21.4810 72.7232,21.4268 72.6690,21.3457 72.6500,21.2500 Z"/> 
</g>
<g style="fill:none;  stroke:#FFFFFF; stroke-width:1.7000; stroke-opacity:1;  stroke-linecap:round; stroke-linejoin:round;">
<path d="M76.0000 20.3500 L76.0000 20.6500 "/>
<path style="fill:#FFFFFF; fill-opacity:1.0000; stroke:none;fill-rule:evenodd;" d="M 46.6000,19.2500 46.6957,19.2690 46.7768,19.3232 46.8310,19.4043 46.8500,19.5000 46.8500,20.7000 46.8310,20.7957 46.7768,20.8768 46.6957,20.9310 46.6000,20.9500 45.1000,20.9500 45.0043,20.9310 44.9232,20.8768 44.8690,20.7957 44.8500,20.7000 44.8500,19.5000 44.8690,19.4043 44.9232,19.3232 45.0043,19.2690 45.1000,19.2500 Z"/> 
</g>
<g style="fill:none;  stroke:#FFFFFF; stroke-width:1.7000; stroke-opacity:1;  stroke-linecap:round; stroke-linejoin:round;">
<path d="M46.0000 22.6000 L45.7000 22.6000 "/>
<path style="fill:#FFFFFF; fill-opacity:1.0000; stroke:none;fill-rule:evenodd;" d="M 44.7500,9.3750 44.7690,9.2793 44.8232,9.1982 44.9043,9.1440 45.0000,9.1250 45.7000,9.1250 45.7957,9.1440 45.8768,9.1982 45.9310,9.2793 45.9500,9.3750 45.9500,10.6250 45.9310,10.7207 45.8768,10.8018 45.7957,10.8560 45.7000,10.8750 45.0000,10.8750 44.9043,10.8560 44.8232,10.8018 44.7690,10.7207 44.7500,10.6250 Z"/> 
</g>
<g style="fill:none;  stroke:#FFFFFF; stroke-width:1.2000; stroke-opacity:1;  stroke-linecap:round; stroke-linejoin:round;">
<path d="M47.3500 9.7250 L47.3500 10.2750 "/>
<path d="M49.3500 9.7250 L49.3500 10.2750 "/>
<path style="fill:#FFFFFF; fill-opacity:1.0000; stroke:none;fill-rule:evenodd;" d="M 18.1750,4.9750 18.1940,4.8793 18.2482,4.7982 18.3293,4.7440 18.4250,4.7250 21.4250,4.7250 21.5207,4.7440 21.6018,4.7982 21.6560,4.8793 21.6750,4.9750 21.6750,6.2750 21.6560,6.3707 21.6018,6.4518 21.5207,6.5060 21.4250,6.5250 18.4250,6.5250 18.3293,6.5060 18.2482,6.4518 18.1940,6.3707 18.1750,6.2750 Z"/> 
<path style="fill:#FFFFFF; fill-opacity:1.0000; stroke:none;fill-rule:evenodd;" d="M 23.1750,4.9750 23.1940,4.8793 23.2482,4.7982 23.3293,4.7440 23.4250,4.7250 26.4250,4.7250 26.5207,4.7440 26.6018,4.7982 26.6560,4.8793 26.6750,4.9750 26.6750,6.2750 26.6560,6.3707 26.6018,6.4518 26.5207,6.5060 26.4250,6.5250 23.4250,6.5250 23.3293,6.5060 23.2482,6.4518 23.1940,6.3707 23.1750,6.2750 Z"/> 
<path style="fill:#FFFFFF; fill-opacity:1.0000; stroke:none;fill-rule:evenodd;" d="M 9.9000,26.7750 9.9190,26.6793 9.9732,26.5982 10.0543,26.5440 10.1500,26.5250 13.1500,26.5250 13.2457,26.5440 13.3268,26.5982 13.3810,26.6793 13.4000,26.7750 13.4000,28.0750 13.3810,28.1707 13.3268,28.2518 13.2457,28.3060 13.1500,28.3250 10.1500,28.3250 10.0543,28.3060 9.9732,28.2518 9.9190,28.1707 9.9000,28.0750 Z"/> 
<path style="fill:#FFFFFF; fill-opacity:1.0000; stroke:none;fill-rule:evenodd;" d="M 14.9000,26.7750 14.9190,26.6793 14.9732,26.5982 15.0543,26.5440 15.1500,26.5250 18.1500,26.5250 18.2457,26.5440 18.3268,26.5982 18.3810,26.6793 18.4000,26.7750 18.4000,28.0750 18.3810,28.1707 18.3268,28.2518 18.2457,28.3060 18.1500,28.3250 15.1500,28.3250 15.0543,28.3060 14.9732,28.2518 14.9190,28.1707 14.9000,28.0750 Z"/> 
<path style="fill:#FFFFFF; fill-opacity:1.0000; stroke:none;fill-rule:evenodd;" d="M 21.4000,19.4250 21.4190,19.3293 21.4732,19.2482 21.5543,19.1940 21.6500,19.1750 22.4500,19.1750 22.5457,19.1940 22.6268,19.2482 22.6810,19.3293 22.7000,19.4250 22.7000,20.6750 22.6810,20.7707 22.6268,20.8518 22.5457,20.9060 22.4500,20.9250 21.6500,20.9250 21.5543,20.9060 21.4732,20.8518 21.4190,20.7707 21.4000,20.6750 Z"/> 
<path style="fill:#FFFFFF; fill-opacity:1.0000; stroke:none;fill-rule:evenodd;" d="M 24.5000,19.4250 24.5190,19.3293 24.5732,19.2482 24.6543,19.1940 24.7500,19.1750 25.5500,19.1750 25.6457,19.1940 25.7268,19.2482 25.7810,19.3293 25.8000,19.4250 25.8000,20.6750 25.7810,20.7707 25.7268,20.8518 25.6457,20.9060 25.5500,20.9250 24.7500,20.9250 24.6543,20.9060 24.5732,20.8518 24.5190,20.7707 24.5000,20.6750 Z"/> 
<path style="fill:#FFFFFF; fill-opacity:1.0000; stroke:none;fill-rule:evenodd;" d="M 54.7500,16.2000 54.6543,16.1810 54.5732,16.1268 54.5190,16.0457 54.5000,15.9500 54.5000,12.9500 54.5190,12.8543 54.5732,12.7732 54.6543,12.7190 54.7500,12.7000 56.0500,12.7000 56.1457,12.7190 56.2268,12.7732 56.2810,12.8543 56.3000,12.9500 56.3000,15.9500 56.2810,16.0457 56.2268,16.1268 56.1457,16.1810 56.0500,16.2000 Z"/> 
<path style="fill:#FFFFFF; fill-opacity:1.0000; stroke:none;fill-rule:evenodd;" d="M 54.7500,11.2000 54.6543,11.1810 54.5732,11.1268 54.5190,11.0457 54.5000,10.9500 54.5000,7.9500 54.5190,7.8543 54.5732,7.7732 54.6543,7.7190 54.7500,7.7000 56.0500,7.7000 56.1457,7.7190 56.2268,7.7732 56.2810,7.8543 56.3000,7.9500 56.3000,10.9500 56.2810,11.0457 56.2268,11.1268 56.1457,11.1810 56.0500,11.2000 Z"/> 
<path style="fill:#FFFFFF; fill-opacity:1.0000; stroke:none;fill-rule:evenodd;" d="M 9.9000,19.4000 9.9190,19.3043 9.9732,19.2232 10.0543,19.1690 10.1500,19.1500 13.1500,19.1500 13.2457,19.1690 13.3268,19.2232 13.3810,19.3043 13.4000,19.4000 13.4000,20.7000 13.3810,20.7957 13.3268,20.8768 13.2457,20.9310 13.1500,20.9500 10.1500,20.9500 10.0543,20.9310 9.9732,20.8768 9.9190,20.7957 9.9000,20.7000 Z"/> 
<path style="fill:#FFFFFF; fill-opacity:1.0000; stroke:none;fill-rule:evenodd;" d="M 14.9000,19.4000 14.9190,19.3043 14.9732,19.2232 15.0543,19.1690 15.1500,19.1500 18.1500,19.1500 18.2457,19.1690 18.3268,19.2232 18.3810,19.3043 18.4000,19.4000 18.4000,20.7000 18.3810,20.7957 18.3268,20.8768 18.2457,20.9310 18.1500,20.9500 15.1500,20.9500 15.0543,20.9310 14.9732,20.8768 14.9190,20.7957 14.9000,20.7000 Z"/> 
<path style="fill:#FFFFFF; fill-opacity:1.0000; stroke:none;fill-rule:evenodd;" d="M 18.2500,14.1000 18.2690,14.0043 18.3232,13.9232 18.4043,13.8690 18.5000,13.8500 21.5000,13.8500 21.5957,13.8690 21.6768,13.9232 21.7310,14.0043 21.7500,14.1000 21.7500,15.4000 21.7310,15.4957 21.6768,15.5768 21.5957,15.6310 21.5000,15.6500 18.5000,15.6500 18.4043,15.6310 18.3232,15.5768 18.2690,15.4957 18.2500,15.4000 Z"/> 
<path style="fill:#FFFFFF; fill-opacity:1.0000; stroke:none;fill-rule:evenodd;" d="M 23.2500,14.1000 23.2690,14.0043 23.3232,13.9232 23.4043,13.8690 23.5000,13.8500 26.5000,13.8500 26.5957,13.8690 26.6768,13.9232 26.7310,14.0043 26.7500,14.1000 26.7500,15.4000 26.7310,15.4957 26.6768,15.5768 26.5957,15.6310 26.5000,15.6500 23.5000,15.6500 23.4043,15.6310 23.3232,15.5768 23.2690,15.4957 23.2500,15.4000 Z"/> 
<path style="fill:#FFFFFF; fill-opacity:1.0000; stroke:none;fill-rule:evenodd;" d="M 18.2000,9.5000 18.2190,9.4043 18.2732,9.3232 18.3543,9.2690 18.4500,9.2500 21.4500,9.2500 21.5457,9.2690 21.6268,9.3232 21.6810,9.4043 21.7000,9.5000 21.7000,10.8000 21.6810,10.8957 21.6268,10.9768 21.5457,11.0310 21.4500,11.0500 18.4500,11.0500 18.3543,11.0310 18.2732,10.9768 18.2190,10.8957 18.2000,10.8000 Z"/> 
<path style="fill:#FFFFFF; fill-opacity:1.0000; stroke:none;fill-rule:evenodd;" d="M 23.2000,9.5000 23.2190,9.4043 23.2732,9.3232 23.3543,9.2690 23.4500,9.2500 26.4500,9.2500 26.5457,9.2690 26.6268,9.3232 26.6810,9.4043 26.7000,9.5000 26.7000,10.8000 26.6810,10.8957 26.6268,10.9768 26.5457,11.0310 26.4500,11.0500 23.4500,11.0500 23.3543,11.0310 23.2732,10.9768 23.2190,10.8957 23.2000,10.8000 Z"/> 
<path style="fill:#FFFFFF; fill-opacity:1.0000; stroke:none;fill-rule:evenodd;" d="M 32.0000,5.0000 32.0190,4.9043 32.0732,4.8232 32.1543,4.7690 32.2500,4.7500 33.0500,4.7500 33.1457,4.7690 33.2268,4.8232 33.2810,4.9043 33.3000,5.0000 33.3000,6.2500 33.2810,6.3457 33.2268,6.4268 33.1457,6.4810 33.0500,6.5000 32.2500,6.5000 32.1543,6.4810 32.0732,6.4268 32.0190,6.3457 32.0000,6.2500 Z"/> 
<path style="fill:#FFFFFF; fill-opacity:1.0000; stroke:none;fill-rule:evenodd;" d="M 35.1000,5.0000 35.1190,4.9043 35.1732,4.8232 35.2543,4.7690 35.3500,4.7500 36.1500,4.7500 36.2457,4.7690 36.3268,4.8232 36.3810,4.9043 36.4000,5.0000 36.4000,6.2500 36.3810,6.3457 36.3268,6.4268 36.2457,6.4810 36.1500,6.5000 35.3500,6.5000 35.2543,6.4810 35.1732,6.4268 35.1190,6.3457 35.1000,6.2500 Z"/> 
<path style="fill:#FFFFFF; fill-opacity:1.0000; stroke:none;fill-rule:evenodd;" d="M 29.2250,19.4750 29.3207,19.4940 29.4018,19.5482 29.4560,19.6293 29.4750,19.7250 29.4750,20.5250 29.4560,20.6207 29.4018,20.7018 29.3207,20.7560 29.2250,20.7750 27.9750,20.7750 27.8793,20.7560 27.7982,20.7018 27.7440,20.6207 27.7250,20.5250 27.7250,19.7250 27.7440,19.6293 27.7982,19.5482 27.8793,19.4940 27.9750,19.4750 Z"/> 
<path style="fill:#FFFFFF; fill-opacity:1.0000; stroke:none;fill-rule:evenodd;" d="M 29.2250,22.5750 29.3207,22.5940 29.4018,22.6482 29.4560,22.7293 29.4750,22.8250 29.4750,23.6250 29.4560,23.7207 29.4018,23.8018 29.3207,23.8560 29.2250,23.8750 27.9750,23.8750 27.8793,23.8560 27.7982,23.8018 27.7440,23.7207 27.7250,23.6250 27.7250,22.8250 27.7440,22.7293 27.7982,22.6482 27.8793,22.5940 27.9750,22.5750 Z"/> 
<path style="fill:#FFFFFF; fill-opacity:1.0000; stroke:none;fill-rule:evenodd;" d="M 32.0750,13.9750 32.0940,13.8793 32.1482,13.7982 32.2293,13.7440 32.3250,13.7250 33.1250,13.7250 33.2207,13.7440 33.3018,13.7982 33.3560,13.8793 33.3750,13.9750 33.3750,15.2250 33.3560,15.3207 33.3018,15.4018 33.2207,15.4560 33.1250,15.4750 32.3250,15.4750 32.2293,15.4560 32.1482,15.4018 32.0940,15.3207 32.0750,15.2250 Z"/> 
<path style="fill:#FFFFFF; fill-opacity:1.0000; stroke:none;fill-rule:evenodd;" d="M 35.1750,13.9750 35.1940,13.8793 35.2482,13.7982 35.3293,13.7440 35.4250,13.7250 36.2250,13.7250 36.3207,13.7440 36.4018,13.7982 36.4560,13.8793 36.4750,13.9750 36.4750,15.2250 36.4560,15.3207 36.4018,15.4018 36.3207,15.4560 36.2250,15.4750 35.4250,15.4750 35.3293,15.4560 35.2482,15.4018 35.1940,15.3207 35.1750,15.2250 Z"/> 
<path style="fill:#FFFFFF; fill-opacity:1.0000; stroke:none;fill-rule:evenodd;" d="M 21.4000,26.8250 21.4190,26.7293 21.4732,26.6482 21.5543,26.5940 21.6500,26.5750 22.4500,26.5750 22.5457,26.5940 22.6268,26.6482 22.6810,26.7293 22.7000,26.8250 22.7000,28.0750 22.6810,28.1707 22.6268,28.2518 22.5457,28.3060 22.4500,28.3250 21.6500,28.3250 21.5543,28.3060 21.4732,28.2518 21.4190,28.1707 21.4000,28.0750 Z"/> 
<path style="fill:#FFFFFF; fill-opacity:1.0000; stroke:none;fill-rule:evenodd;" d="M 24.5000,26.8250 24.5190,26.7293 24.5732,26.6482 24.6543,26.5940 24.7500,26.5750 25.5500,26.5750 25.6457,26.5940 25.7268,26.6482 25.7810,26.7293 25.8000,26.8250 25.8000,28.0750 25.7810,28.1707 25.7268,28.2518 25.6457,28.3060 25.5500,28.3250 24.7500,28.3250 24.6543,28.3060 24.5732,28.2518 24.5190,28.1707 24.5000,28.0750 Z"/> 
<path style="fill:#FFFFFF; fill-opacity:1.0000; stroke:none;fill-rule:evenodd;" d="M 32.0250,9.3750 32.0440,9.2793 32.0982,9.1982 32.1793,9.1440 32.2750,9.1250 33.0750,9.1250 33.1707,9.1440 33.2518,9.1982 33.3060,9.2793 33.3250,9.3750 33.3250,10.6250 33.3060,10.7207 33.2518,10.8018 33.1707,10.8560 33.0750,10.8750 32.2750,10.8750 32.1793,10.8560 32.0982,10.8018 32.0440,10.7207 32.0250,10.6250 Z"/> 
<path style="fill:#FFFFFF; fill-opacity:1.0000; stroke:none;fill-rule:evenodd;" d="M 35.1250,9.3750 35.1440,9.2793 35.1982,9.1982 35.2793,9.1440 35.3750,9.1250 36.1750,9.1250 36.2707,9.1440 36.3518,9.1982 36.4060,9.2793 36.4250,9.3750 36.4250,10.6250 36.4060,10.7207 36.3518,10.8018 36.2707,10.8560 36.1750,10.8750 35.3750,10.8750 35.2793,10.8560 35.1982,10.8018 35.1440,10.7207 35.1250,10.6250 Z"/> 
<path style="fill:#FFFFFF; fill-opacity:1.0000; stroke:none;fill-rule:evenodd;" d="M 32.7000,24.8000 32.7152,24.7235 32.7586,24.6586 32.8235,24.6152 32.9000,24.6000 34.4000,24.6000 34.4765,24.6152 34.5414,24.6586 34.5848,24.7235 34.6000,24.8000 34.6000,25.2000 34.5848,25.2765 34.5414,25.3414 34.4765,25.3848 34.4000,25.4000 32.9000,25.4000 32.8235,25.3848 32.7586,25.3414 32.7152,25.2765 32.7000,25.2000 Z"/> 
<path style="fill:#FFFFFF; fill-opacity:1.0000; stroke:none;fill-rule:evenodd;" d="M 32.7000,22.9000 32.7152,22.8235 32.7586,22.7586 32.8235,22.7152 32.9000,22.7000 34.4000,22.7000 34.4765,22.7152 34.5414,22.7586 34.5848,22.8235 34.6000,22.9000 34.6000,23.3000 34.5848,23.3765 34.5414,23.4414 34.4765,23.4848 34.4000,23.5000 32.9000,23.5000 32.8235,23.4848 32.7586,23.4414 32.7152,23.3765 32.7000,23.3000 Z"/> 
<path style="fill:#FFFFFF; fill-opacity:1.0000; stroke:none;fill-rule:evenodd;" d="M 35.7000,23.8500 35.7152,23.7735 35.7586,23.7086 35.8235,23.6652 35.9000,23.6500 37.4000,23.6500 37.4765,23.6652 37.5414,23.7086 37.5848,23.7735 37.6000,23.8500 37.6000,24.2500 37.5848,24.3265 37.5414,24.3914 37.4765,24.4348 37.4000,24.4500 35.9000,24.4500 35.8235,24.4348 35.7586,24.3914 35.7152,24.3265 35.7000,24.2500 Z"/> 
</g>
<g style="fill:none;  stroke:#FFFFFF; stroke-width:0.7500; stroke-opacity:1;  stroke-linecap:round; stroke-linejoin:round;">
<path d="M54.8500 10.0000 L55.4000 9.4500 "/>
<path d="M49.3500 10.0000 L54.8500 10.0000 "/>
<path d="M55.4000 14.4500 L55.4000 20.0250 "/>
<path d="M45.8500 20.0250 L55.4000 20.0250 "/>
<path d="M55.4000 20.0250 L55.4750 20.1000 "/>
<path d="M55.5000 20.0750 L55.4750 20.1000 "/>
<path d="M25.0000 14.7500 L32.5750 14.7500 "/>
<path d="M32.5750 14.7500 L32.7250 14.6000 "/>
<path d="M11.6500 20.0500 L10.6500 19.0500 "/>
<path d="M18.0000 14.7500 L20.0000 14.7500 "/>
<path d="M15.4000 12.1500 L18.0000 14.7500 "/>
<path d="M10.6500 12.1500 L15.4000 12.1500 "/>
<path d="M10.6500 19.0500 L10.6500 12.1500 "/>
<path d="M10.6500 10.1500 L9.2500 10.1500 "/>
<path d="M10.6500 10.1500 L19.9500 10.1500 "/>
<path d="M8.5750 27.4250 L7.5000 26.3500 "/>
<path d="M11.6500 27.4250 L8.5750 27.4250 "/>
<path d="M9.2500 10.1500 L7.5000 11.9000 "/>
<path d="M7.5000 26.3500 L7.5000 11.9000 "/>
<path d="M24.9500 10.1500 L32.5250 10.1500 "/>
<path d="M32.5250 10.1500 L32.6750 10.0000 "/>
<path d="M15.0500 8.1500 L17.5750 5.6250 "/>
<path d="M17.5750 5.6250 L19.9250 5.6250 "/>
<path d="M10.6500 8.1500 L15.0500 8.1500 "/>
<path d="M24.9250 5.6250 L32.6500 5.6250 "/>
<path d="M16.6500 27.4250 L22.0250 27.4250 "/>
<path d="M22.0250 27.4250 L22.0500 27.4500 "/>
<path d="M16.6500 20.0500 L22.0500 20.0500 "/>
<path d="M48.5500 6.6000 L60.5500 6.6000 "/>
<path d="M60.5500 6.6000 L61.8500 7.9000 "/>
<path d="M66.1000 12.1500 L73.5000 12.1500 "/>
<path d="M47.3500 7.8000 L48.5500 6.6000 "/>
<path d="M61.8500 7.9000 L66.1000 12.1500 "/>
<path d="M73.5000 12.1500 L73.5000 20.5000 "/>
<path d="M47.3500 10.0000 L47.3500 7.8000 "/>
<path d="M25.1500 27.4500 L41.7000 27.4500 "/>
<path d="M36.6500 24.0500 L38.3000 24.0500 "/>
<path d="M41.7000 27.4500 L50.6250 27.4500 "/>
<path d="M38.3000 24.0500 L41.7000 27.4500 "/>
<path d="M55.4750 22.6000 L65.0250 22.6000 "/>
<path d="M65.0250 22.6000 L65.0750 22.6500 "/>
<path d="M55.4750 22.6000 L50.6250 27.4500 "/>
<path d="M41.6000 22.6000 L45.8500 22.6000 "/>
<path d="M39.1250 20.1250 L41.6000 22.6000 "/>
<path d="M28.6000 20.1250 L39.1250 20.1250 "/>
<path d="M25.1500 20.0500 L28.5250 20.0500 "/>
<path d="M28.5250 20.0500 L28.6000 20.1250 "/>
<path d="M45.5421 22.5250 L45.8500 22.5250 "/>
<path d="M35.7500 5.6250 L36.9500 5.6250 "/>
<path d="M38.9500 10.0000 L39.0000 9.9500 "/>
<path d="M37.0000 14.6000 L39.0000 12.6000 "/>
<path d="M35.7750 10.0000 L38.9500 10.0000 "/>
<path d="M36.9500 5.6250 L39.0000 7.6750 "/>
<path d="M39.0000 12.6000 L39.0000 9.9500 "/>
<path d="M35.8250 14.6000 L37.0000 14.6000 "/>
<path d="M45.3500 10.0000 L38.9500 10.0000 "/>
<path d="M39.0000 7.6750 L39.0000 9.9500 "/>
<path d="M31.3250 25.0000 L33.6500 25.0000 "/>
<path d="M28.6000 23.2250 L29.5500 23.2250 "/>
<path d="M29.5500 23.2250 L31.3250 25.0000 "/>
<path style="fill:#FFFFFF; fill-opacity:1.0000; stroke:none;fill-rule:evenodd;" d="M 76.7995,2.0452 76.8452,2.0980 76.8552,2.1671 76.8261,2.2307 76.7674,2.2685 76.7518,2.2720 76.6838,2.2828 76.4816,2.3484 76.2922,2.4450 76.1202,2.5699 75.9699,2.7202 75.8450,2.8922 75.7484,3.0816 75.6828,3.2838 75.6556,3.4552 75.6495,3.4937 75.6495,3.7063 75.6828,3.9162 75.7436,4.1036 75.7484,4.1184 75.8450,4.3078 75.9699,4.4798 76.1202,4.6301 76.2922,4.7550 76.2922,4.7550 76.2922,4.7551 76.4816,4.8516 76.6838,4.9172 76.8937,4.9505 76.8937,4.9505 77.1063,4.9505 77.1063,4.9505 77.3162,4.9172 77.5184,4.8516 77.7078,4.7551 77.7534,4.7220 77.8798,4.6301 77.8798,4.6301 77.8798,4.6301 78.0301,4.4798 78.0301,4.4798 78.0301,4.4798 78.1550,4.3078 78.1550,4.3078 78.1551,4.3078 78.2516,4.1184 78.3172,3.9162 78.3280,3.8482 78.3580,3.7850 78.4173,3.7481 78.4871,3.7491 78.5454,3.7877 78.5735,3.8517 78.5745,3.8676 78.5745,27.3324 78.5548,27.3995 78.5020,27.4452 78.4329,27.4552 78.3693,27.4261 78.3315,27.3674 78.3280,27.3518 78.3172,27.2838 78.3172,27.2838 78.2516,27.0816 78.1551,26.8922 78.1550,26.8922 78.1550,26.8922 78.0301,26.7202 77.8798,26.5699 77.7078,26.4450 77.5184,26.3484 77.5184,26.3484 77.5184,26.3484 77.3162,26.2828 77.3162,26.2828 77.3162,26.2828 77.1550,26.2572 77.1063,26.2495 76.8937,26.2495 76.8450,26.2572 76.6838,26.2828 76.4816,26.3484 76.2922,26.4450 76.1202,26.5699 75.9699,26.7202 75.8450,26.8922 75.7484,27.0816 75.6828,27.2838 75.6556,27.4552 75.6495,27.4937 75.6495,27.7063 75.6828,27.9162 75.7436,28.1036 75.7484,28.1184 75.8450,28.3078 75.9699,28.4798 76.1202,28.6301 76.2922,28.7550 76.2922,28.7550 76.2922,28.7551 76.4816,28.8516 76.6838,28.9172 76.8937,28.9505 76.8937,28.9505 77.1063,28.9505 77.1063,28.9505 77.3162,28.9172 77.5184,28.8516 77.7078,28.7551 77.8280,28.6677 77.8798,28.6301 77.8798,28.6301 77.8798,28.6301 78.0301,28.4798 78.0301,28.4798 78.0301,28.4798 78.1550,28.3078 78.1550,28.3078 78.1551,28.3078 78.2516,28.1184 78.3172,27.9162 78.3280,27.8482 78.3580,27.7850 78.4173,27.7481 78.4871,27.7491 78.5454,27.7877 78.5735,27.8517 78.5745,27.8676 78.5745,29.2005 78.5548,29.2675 78.5020,29.3133 78.4505,29.3245 2.1495,29.3245 2.0825,29.3048 2.0367,29.2520 2.0255,29.2005 2.0255,28.1974 2.0452,28.1303 2.0980,28.0846 2.1671,28.0746 2.2307,28.1036 2.2600,28.1411 2.2904,28.2009 2.3450,28.3078 2.4699,28.4798 2.6202,28.6301 2.7922,28.7550 2.7922,28.7550 2.7922,28.7551 2.9816,28.8516 3.1838,28.9172 3.3937,28.9505 3.3937,28.9505 3.6063,28.9505 3.6063,28.9505 3.8162,28.9172 4.0184,28.8516 4.2078,28.7551 4.3280,28.6677 4.3798,28.6301 4.3798,28.6301 4.3798,28.6301 4.5301,28.4798 4.5301,28.4798 4.5301,28.4798 4.6550,28.3078 4.6550,28.3078 4.6551,28.3078 4.7516,28.1184 4.8172,27.9162 4.8505,27.7063 4.8505,27.4937 4.8172,27.2838 4.7516,27.0816 4.6551,26.8922 4.6550,26.8922 4.6550,26.8922 4.5301,26.7202 4.3798,26.5699 4.2078,26.4450 4.0184,26.3484 4.0184,26.3484 4.0184,26.3484 3.8162,26.2828 3.8162,26.2828 3.8162,26.2828 3.6550,26.2572 3.6063,26.2495 3.3937,26.2495 3.3450,26.2572 3.1838,26.2828 2.9816,26.3484 2.7922,26.4450 2.6202,26.5699 2.4699,26.7202 2.3450,26.8922 2.2600,27.0589 2.2120,27.1097 2.1442,27.1265 2.0781,27.1040 2.0346,27.0493 2.0255,27.0026 2.0255,11.8138 6.6245,11.8138 6.6245,26.4362 6.6581,26.6054 6.6581,26.6054 6.7241,26.7647 6.7241,26.7647 6.8200,26.9081 6.8200,26.9081 7.8950,27.9831 7.9865,28.0746 8.0169,28.1050 8.1603,28.2009 8.1603,28.2009 8.2253,28.2278 8.3196,28.2669 8.4453,28.2919 8.4888,28.3005 8.4888,28.3005 8.4888,28.3005 9.3446,28.3005 9.4116,28.3202 9.4573,28.3730 9.4623,28.3855 9.4635,28.3893 9.4652,28.3943 9.5573,28.5437 9.6813,28.6677 9.8307,28.7598 9.9972,28.8150 10.1000,28.8255 13.2000,28.8255 13.3028,28.8150 13.4693,28.7598 13.6187,28.6677 13.7427,28.5437 13.8348,28.3943 13.8900,28.2278 13.9005,28.1250 13.9005,26.7250 13.9005,26.7250 14.3995,26.7250 14.3995,28.1250 14.3995,28.1250 14.4100,28.2278 14.4100,28.2278 14.4581,28.3730 14.4652,28.3943 14.5573,28.5437 14.6813,28.6677 14.8307,28.7598 14.9972,28.8150 15.1000,28.8255 18.2000,28.8255 18.3028,28.8150 18.4693,28.7598 18.6187,28.6677 18.7427,28.5437 18.8348,28.3943 18.8377,28.3855 18.8775,28.3280 18.9420,28.3012 18.9554,28.3005 20.8446,28.3005 20.9116,28.3202 20.9573,28.3730 20.9623,28.3855 20.9635,28.3893 20.9652,28.3943 21.0573,28.5437 21.1813,28.6677 21.3307,28.7598 21.4972,28.8150 21.6000,28.8255 22.5000,28.8255 22.5000,28.8255 22.5000,28.8255 22.5563,28.8197 22.6028,28.8150 22.7693,28.7598 22.9187,28.6677 23.0427,28.5437 23.1348,28.3943 23.1900,28.2278 23.2005,28.1250 23.2005,26.7750 23.1994,26.7647 23.1900,26.6722 23.1900,26.6722 23.1734,26.6222 23.1348,26.5057 23.0427,26.3563 22.9187,26.2323 22.7693,26.1402 22.6028,26.0850 22.6028,26.0850 22.5000,26.0745 21.6000,26.0745 21.6000,26.0745 21.4972,26.0850 21.4972,26.0850 21.3307,26.1402 21.3307,26.1402 21.1813,26.2323 21.0573,26.3563 21.0573,26.3563 20.9829,26.4770 20.9745,26.4906 20.9225,26.5373 20.8689,26.5495 18.9554,26.5495 18.8884,26.5298 18.8427,26.4770 18.8377,26.4645 18.8363,26.4601 18.8348,26.4557 18.7427,26.3063 18.6187,26.1823 18.4693,26.0902 18.3028,26.0350 18.3028,26.0350 18.2000,26.0245 15.1000,26.0245 15.1000,26.0245 14.9972,26.0350 14.9972,26.0350 14.8307,26.0902 14.8307,26.0902 14.6813,26.1823 14.5573,26.3063 14.4652,26.4557 14.4652,26.4557 14.4486,26.5057 14.4100,26.6222 14.4100,26.6222 14.4100,26.6222 14.3995,26.7250 13.9005,26.7250 13.9000,26.7202 13.8900,26.6222 13.8900,26.6222 13.8741,26.5742 13.8348,26.4557 13.7427,26.3063 13.6187,26.1823 13.4693,26.0902 13.3028,26.0350 13.3028,26.0350 13.2000,26.0245 10.1000,26.0245 10.1000,26.0245 9.9972,26.0350 9.9972,26.0350 9.8307,26.0902 9.8307,26.0902 9.6813,26.1823 9.5573,26.3063 9.4652,26.4557 9.4623,26.4645 9.4225,26.5220 9.3580,26.5488 9.3446,26.5495 8.9890,26.5495 8.9220,26.5298 8.9013,26.5132 8.4118,26.0237 8.3783,25.9624 8.3755,25.9360 8.3755,12.3140 8.3952,12.2470 8.4118,12.2263 8.7381,11.9000 9.0720,11.5661 9.1333,11.5327 9.2030,11.5376 9.2589,11.5795 9.2834,11.6450 9.2830,11.6664 9.2745,11.7500 9.2745,12.5500 9.2745,12.5500 9.2850,12.6528 9.2850,12.6528 9.3402,12.8193 9.3402,12.8193 9.3624,12.8554 9.4323,12.9687 9.5563,13.0927 9.7057,13.1848 9.7057,13.1848 9.7118,13.1886 9.7107,13.1904 9.7553,13.2297 9.7745,13.2959 9.7745,18.6806 9.7548,18.7477 9.7156,18.7862 9.6813,18.8073 9.5573,18.9313 9.4652,19.0807 9.4652,19.0807 9.4481,19.1323 9.4100,19.2472 9.4100,19.2472 9.4100,19.2472 9.3995,19.3500 9.3995,19.3500 9.3995,20.7500 9.3995,20.7500 9.4100,20.8528 9.4100,20.8528 9.4549,20.9882 9.4652,21.0193 9.5573,21.1687 9.6813,21.2927 9.8307,21.3848 9.9972,21.4400 10.1000,21.4505 13.2000,21.4505 13.3028,21.4400 13.4693,21.3848 13.6187,21.2927 13.7427,21.1687 13.8348,21.0193 13.8900,20.8528 13.9005,20.7500 13.9005,19.3500 13.9005,19.3500 14.3995,19.3500 14.3995,19.3500 14.3995,20.7500 14.3995,20.7500 14.4100,20.8528 14.4100,20.8528 14.4549,20.9882 14.4652,21.0193 14.5573,21.1687 14.6813,21.2927 14.8307,21.3848 14.9972,21.4400 15.1000,21.4505 18.2000,21.4505 18.3028,21.4400 18.4693,21.3848 18.6187,21.2927 18.7427,21.1687 18.8348,21.0193 18.8377,21.0105 18.8775,20.9530 18.9420,20.9262 18.9554,20.9255 20.8541,20.9255 20.9211,20.9452 20.9596,20.9893 20.9614,20.9882 20.9652,20.9943 20.9652,20.9943 21.0573,21.1437 21.1813,21.2677 21.3307,21.3598 21.4972,21.4150 21.6000,21.4255 22.5000,21.4255 22.5000,21.4255 22.5000,21.4255 22.5597,21.4194 22.6028,21.4150 22.7693,21.3598 22.9187,21.2677 23.0427,21.1437 23.1348,20.9943 23.1900,20.8278 23.2005,20.7250 23.2005,19.3750 23.2005,19.3750 23.9995,19.3750 23.9995,20.7250 23.9995,20.7250 24.0100,20.8278 24.0100,20.8278 24.0652,20.9943 24.0652,20.9943 24.0869,21.0295 24.1573,21.1437 24.2813,21.2677 24.4307,21.3598 24.5972,21.4150 24.7000,21.4255 25.6000,21.4255 25.6000,21.4255 25.6000,21.4255 25.6597,21.4194 25.7028,21.4150 25.8693,21.3598 26.0187,21.2677 26.1427,21.1437 26.2348,20.9943 26.2348,20.9943 26.2386,20.9882 26.2404,20.9893 26.2797,20.9447 26.3459,20.9255 27.2710,20.9255 27.3381,20.9452 27.3766,20.9844 27.3789,20.9882 27.3823,20.9937 27.5063,21.1177 27.6557,21.2098 27.8222,21.2650 27.9250,21.2755 29.2750,21.2755 29.3778,21.2650 29.5443,21.2098 29.6937,21.1177 29.7745,21.0368 29.8359,21.0033 29.8622,21.0005 38.7110,21.0005 38.7780,21.0202 38.7987,21.0368 40.9200,23.1581 41.0360,23.2741 41.0419,23.2800 41.1853,23.3759 41.1853,23.3759 41.3090,23.4271 41.3446,23.4419 41.5138,23.4755 41.5138,23.4755 41.5138,23.4755 44.6142,23.4755 44.6813,23.4952 44.7019,23.5118 44.8202,23.6301 44.9922,23.7550 44.9922,23.7550 44.9922,23.7551 45.1816,23.8516 45.3838,23.9172 45.5937,23.9505 45.5937,23.9505 46.1063,23.9505 46.1063,23.9505 46.3162,23.9172 46.5184,23.8516 46.7078,23.7551 46.7356,23.7349 46.8798,23.6301 46.8798,23.6301 46.8798,23.6301 47.0301,23.4798 47.0301,23.4798 47.0301,23.4798 47.1550,23.3078 47.1550,23.3078 47.1551,23.3078 47.2516,23.1184 47.3172,22.9162 47.3505,22.7063 47.3505,22.4937 47.3172,22.2838 47.2516,22.0816 47.1551,21.8922 47.1550,21.8922 47.1550,21.8922 47.0301,21.7202 46.8913,21.5814 46.8578,21.5201 46.8628,21.4504 46.9047,21.3944 46.9139,21.3882 46.9193,21.3848 46.9193,21.3848 47.0687,21.2927 47.1927,21.1687 47.2848,21.0193 47.2948,20.9893 47.2960,20.9855 47.3358,20.9280 47.4003,20.9012 47.4137,20.9005 53.9113,20.9005 53.9783,20.9202 54.0241,20.9730 54.0290,20.9855 54.0319,20.9943 54.0402,21.0193 54.1320,21.1682 54.1323,21.1687 54.2563,21.2927 54.4111,21.3882 54.4578,21.4401 54.4691,21.5091 54.4412,21.5732 54.4337,21.5814 54.2949,21.7202 54.1700,21.8922 54.0734,22.0816 54.0078,22.2838 53.9745,22.4937 53.9745,22.7063 53.9745,22.7063 53.9860,22.7786 53.9770,22.8479 53.9512,22.8857 50.2987,26.5382 50.2374,26.5717 50.2110,26.5745 42.1140,26.5745 42.0470,26.5548 42.0263,26.5382 38.8581,23.3700 38.8581,23.3700 38.7147,23.2741 38.7147,23.2741 38.5554,23.2081 38.5554,23.2081 38.3862,23.1745 38.3862,23.1745 37.6057,23.1745 37.5688,23.1689 37.5272,23.1559 37.5272,23.1559 37.4566,23.1495 35.8434,23.1495 35.8241,23.1512 35.7728,23.1559 35.6104,23.2065 35.4648,23.2945 35.3445,23.4148 35.3288,23.4408 35.2773,23.4880 35.2084,23.4999 35.1441,23.4726 35.1047,23.4149 35.0992,23.3655 35.1000,23.3566 35.1000,23.3500 32.2000,23.3500 32.2000,23.3566 32.2064,23.4271 32.2064,23.4271 32.2570,23.5894 32.3449,23.7349 32.4651,23.8551 32.5301,23.8944 32.5773,23.9459 32.5892,24.0148 32.5619,24.0791 32.5042,24.1185 32.4660,24.1245 31.7390,24.1245 31.6720,24.1048 31.6513,24.0882 30.4914,22.9283 30.4066,22.8434 32.2000,22.8434 32.2000,22.8500 33.4000,22.8500 33.9000,22.8500 35.1000,22.8500 35.1000,22.8434 35.0936,22.7729 35.0936,22.7729 35.0430,22.6106 34.9551,22.4651 34.8349,22.3449 34.6894,22.2570 34.6894,22.2570 34.5271,22.2064 34.5271,22.2064 34.4566,22.2000 33.9000,22.2000 33.9000,22.8500 33.4000,22.8500 33.4000,22.2000 32.8434,22.2000 32.7729,22.2064 32.7729,22.2064 32.6106,22.2570 32.4651,22.3449 32.3449,22.4651 32.2570,22.6106 32.2064,22.7729 32.2000,22.8434 30.4066,22.8434 30.1081,22.5450 30.1081,22.5450 29.9647,22.4491 29.9647,22.4491 29.8812,22.4145 29.8268,22.3707 29.8231,22.3651 29.8177,22.3563 29.6937,22.2323 29.6937,22.2323 29.5443,22.1402 29.3778,22.0850 29.3778,22.0850 29.2750,22.0745 27.9250,22.0745 27.9250,22.0745 27.8222,22.0850 27.8222,22.0850 27.6557,22.1402 27.6557,22.1402 27.5063,22.2323 27.3823,22.3563 27.2902,22.5057 27.2902,22.5057 27.2350,22.6722 27.2350,22.6722 27.2350,22.6722 27.2245,22.7750 27.2245,23.6750 27.2245,23.6750 27.2350,23.7778 27.2350,23.7778 27.2902,23.9443 27.2902,23.9443 27.2940,23.9505 27.3823,24.0937 27.5063,24.2177 27.6557,24.3098 27.8222,24.3650 27.9250,24.3755 29.2750,24.3755 29.3164,24.3713 29.3845,24.3643 29.3848,24.3670 29.4425,24.3713 29.4865,24.3996 30.7669,25.6800 30.7669,25.6800 30.9103,25.7759 30.9103,25.7759 31.0696,25.8419 31.0696,25.8419 31.2388,25.8755 31.2388,25.8755 31.2388,25.8755 31.4112,25.8755 32.6943,25.8755 32.7312,25.8811 32.7473,25.8861 32.7728,25.8941 32.8434,25.9005 32.8434,25.9005 34.4566,25.9005 34.4566,25.9005 34.5272,25.8941 34.6896,25.8435 34.8352,25.7555 34.9555,25.6352 35.0435,25.4896 35.0941,25.3272 35.1005,25.2566 35.1005,24.7434 35.0998,24.7355 35.1133,24.6670 35.1618,24.6166 35.2297,24.6005 35.2957,24.6236 35.3294,24.6601 35.3445,24.6852 35.3445,24.6852 35.4648,24.8055 35.4648,24.8055 35.4648,24.8055 35.6104,24.8935 35.7728,24.9441 35.8434,24.9505 35.8434,24.9505 37.4566,24.9505 37.4566,24.9505 37.5272,24.9441 37.5562,24.9350 37.5688,24.9311 37.6057,24.9255 37.8860,24.9255 37.9530,24.9452 37.9737,24.9618 39.3747,26.3628 39.4082,26.4241 39.4032,26.4938 39.3613,26.5498 39.2958,26.5742 39.2870,26.5745 26.3459,26.5745 26.2789,26.5548 26.2404,26.5107 26.2386,26.5118 26.2348,26.5057 26.1427,26.3563 26.0187,26.2323 25.8693,26.1402 25.7028,26.0850 25.7028,26.0850 25.6000,26.0745 24.7000,26.0745 24.7000,26.0745 24.5972,26.0850 24.5972,26.0850 24.4307,26.1402 24.4307,26.1402 24.2813,26.2323 24.1573,26.3563 24.0652,26.5057 24.0652,26.5057 24.0439,26.5699 24.0100,26.6722 24.0100,26.6722 24.0100,26.6722 23.9995,26.7750 23.9995,28.1250 23.9995,28.1250 24.0100,28.2278 24.0100,28.2278 24.0581,28.3730 24.0652,28.3943 24.1573,28.5437 24.2813,28.6677 24.4307,28.7598 24.5972,28.8150 24.7000,28.8255 25.6000,28.8255 25.6000,28.8255 25.6000,28.8255 25.6563,28.8197 25.7028,28.8150 25.8693,28.7598 26.0187,28.6677 26.1427,28.5437 26.2348,28.3943 26.2348,28.3943 26.2386,28.3882 26.2404,28.3893 26.2797,28.3447 26.3459,28.3255 50.7112,28.3255 50.7112,28.3255 50.8804,28.2919 51.0397,28.2259 51.1831,28.1300 55.3263,23.9868 55.3876,23.9533 55.4140,23.9505 55.7313,23.9505 55.7313,23.9505 55.9412,23.9172 56.1434,23.8516 56.3328,23.7551 56.3606,23.7349 56.5048,23.6301 56.5048,23.6301 56.5048,23.6301 56.6231,23.5118 56.6844,23.4783 56.7108,23.4755 63.5196,23.4755 63.5866,23.4952 63.6323,23.5480 63.6373,23.5605 63.6402,23.5693 63.7323,23.7187 63.8563,23.8427 64.0057,23.9348 64.1722,23.9900 64.2750,24.0005 65.8750,24.0005 65.9778,23.9900 66.1443,23.9348 66.2937,23.8427 66.4177,23.7187 66.5098,23.5693 66.5650,23.4028 66.5755,23.3000 66.5755,22.0000 66.5650,21.8972 66.5098,21.7307 66.4177,21.5813 66.2937,21.4573 66.1443,21.3652 66.1443,21.3652 66.1384,21.3616 66.0917,21.3096 66.0805,21.2406 66.1083,21.1766 66.1159,21.1683 66.2547,21.0295 66.3796,20.8576 66.4761,20.6682 66.5418,20.4661 66.5418,20.4661 66.5522,20.4000 65.5080,20.4000 65.5409,20.3430 65.5750,20.2158 65.5750,20.0842 65.5409,19.9570 65.5080,19.9000 66.5522,19.9000 66.5418,19.8339 66.5418,19.8339 66.4761,19.6318 66.3796,19.4424 66.2547,19.2705 66.2547,19.2705 66.1045,19.1203 66.1045,19.1203 65.9326,18.9954 65.7432,18.8989 65.5411,18.8332 65.3312,18.8000 65.3250,18.8000 65.3250,19.7170 65.2680,19.6841 65.1408,19.6500 65.0092,19.6500 64.8820,19.6841 64.8250,19.7170 64.8250,18.8000 64.8188,18.8000 64.6089,18.8332 64.6089,18.8332 64.4068,18.8989 64.2174,18.9954 64.0455,19.1203 64.0455,19.1203 63.8953,19.2705 63.8953,19.2705 63.7704,19.4424 63.6739,19.6318 63.6082,19.8339 63.6082,19.8339 63.5978,19.9000 64.6420,19.9000 64.6091,19.9570 64.5750,20.0842 64.5750,20.2158 64.6091,20.3430 64.6420,20.4000 63.5978,20.4000 63.6082,20.4661 63.6082,20.4661 63.6739,20.6682 63.7704,20.8576 63.8953,21.0295 63.8953,21.0295 64.0341,21.1683 64.0676,21.2297 64.0626,21.2993 64.0208,21.3553 64.0116,21.3616 63.8563,21.4573 63.7323,21.5813 63.6803,21.6656 63.6284,21.7123 63.5748,21.7245 56.7108,21.7245 56.6813,21.7159 56.6513,21.7093 56.6463,21.7056 56.6437,21.7048 56.6231,21.6882 56.5163,21.5814 56.4828,21.5201 56.4878,21.4504 56.5297,21.3944 56.5389,21.3882 56.5443,21.3848 56.5443,21.3848 56.6937,21.2927 56.8177,21.1687 56.9098,21.0193 56.9650,20.8528 56.9755,20.7500 56.9755,19.4500 56.9750,19.4450 56.9650,19.3472 56.9650,19.3472 56.9561,19.3203 56.9098,19.1807 56.8177,19.0313 56.6937,18.9073 56.5443,18.8152 56.5443,18.8152 56.3778,18.7600 56.3735,18.7591 56.3121,18.7258 56.2784,18.6646 56.2755,18.6378 56.2755,16.7554 56.2952,16.6884 56.3480,16.6427 56.3605,16.6377 56.3693,16.6348 56.5187,16.5427 56.6427,16.4187 56.7348,16.2693 56.7900,16.1028 56.8005,16.0000 56.8005,12.9000 56.7900,12.7972 56.7348,12.6307 56.6427,12.4813 56.5187,12.3573 56.4259,12.3001 56.3693,12.2652 56.3693,12.2652 56.3617,12.2626 56.2028,12.2100 56.2028,12.2100 56.1000,12.1995 54.7000,12.1995 54.7000,12.1995 54.5972,12.2100 54.5972,12.2100 54.4307,12.2652 54.4307,12.2652 54.2813,12.3573 54.1573,12.4813 54.0652,12.6307 54.0652,12.6307 54.0468,12.6862 54.0100,12.7972 54.0100,12.7972 54.0100,12.7972 53.9995,12.9000 53.9995,16.0000 53.9995,16.0000 54.0100,16.1028 54.0100,16.1028 54.0258,16.1505 54.0652,16.2693 54.1573,16.4187 54.2813,16.5427 54.4307,16.6348 54.4395,16.6377 54.4969,16.6775 54.5238,16.7420 54.5245,16.7554 54.5245,18.6863 54.5048,18.7533 54.4520,18.7991 54.4395,18.8040 54.4057,18.8152 54.4057,18.8152 54.2563,18.9073 54.1323,19.0313 54.1204,19.0507 54.1019,19.0807 54.0957,19.0906 54.0438,19.1373 53.9902,19.1495 47.3348,19.1495 47.2678,19.1298 47.2293,19.0906 47.2231,19.0807 47.1927,19.0313 47.0687,18.9073 46.9193,18.8152 46.7528,18.7600 46.7528,18.7600 46.6500,18.7495 45.0500,18.7495 45.0500,18.7495 44.9472,18.7600 44.9472,18.7600 44.7807,18.8152 44.7807,18.8152 44.6313,18.9073 44.5073,19.0313 44.4152,19.1807 44.4152,19.1807 44.3931,19.2472 44.3600,19.3472 44.3600,19.3472 44.3600,19.3472 44.3495,19.4500 44.3495,19.4500 44.3495,20.7500 44.3495,20.7500 44.3600,20.8528 44.3600,20.8528 44.4049,20.9882 44.4152,21.0193 44.5070,21.1682 44.5073,21.1687 44.6313,21.2927 44.7861,21.3882 44.8017,21.4055 44.8203,21.4194 44.8246,21.4310 44.8328,21.4401 44.8366,21.4631 44.8447,21.4849 44.8421,21.4969 44.8441,21.5091 44.8348,21.5304 44.8299,21.5531 44.8181,21.5688 44.8162,21.5732 44.8087,21.5814 44.7019,21.6882 44.6406,21.7217 44.6142,21.7245 42.0140,21.7245 41.9470,21.7048 41.9263,21.6882 39.6831,19.4450 39.6831,19.4450 39.5397,19.3491 39.5397,19.3491 39.3804,19.2831 39.3804,19.2831 39.2112,19.2495 39.2112,19.2495 29.8622,19.2495 29.7952,19.2298 29.7745,19.2132 29.6937,19.1323 29.6937,19.1323 29.5443,19.0402 29.3778,18.9850 29.3778,18.9850 29.2750,18.9745 27.9250,18.9745 27.9250,18.9745 27.8222,18.9850 27.8222,18.9850 27.6557,19.0402 27.6557,19.0402 27.5063,19.1323 27.5005,19.1382 27.4391,19.1717 27.4128,19.1745 26.3459,19.1745 26.2789,19.1548 26.2404,19.1107 26.2386,19.1118 26.2348,19.1057 26.1427,18.9563 26.0187,18.8323 25.9259,18.7751 25.8693,18.7402 25.8693,18.7402 25.8259,18.7258 25.7028,18.6850 25.7028,18.6850 25.6000,18.6745 24.7000,18.6745 24.7000,18.6745 24.5972,18.6850 24.5972,18.6850 24.4307,18.7402 24.4307,18.7402 24.2813,18.8323 24.1573,18.9563 24.0652,19.1057 24.0652,19.1057 24.0481,19.1573 24.0100,19.2722 24.0100,19.2722 24.0100,19.2722 23.9995,19.3750 23.2005,19.3750 23.1979,19.3491 23.1900,19.2722 23.1900,19.2722 23.1597,19.1807 23.1348,19.1057 23.0427,18.9563 22.9187,18.8323 22.8259,18.7751 22.7693,18.7402 22.7693,18.7402 22.7259,18.7258 22.6028,18.6850 22.6028,18.6850 22.5000,18.6745 21.6000,18.6745 21.6000,18.6745 21.4972,18.6850 21.4972,18.6850 21.3307,18.7402 21.3307,18.7402 21.1813,18.8323 21.0573,18.9563 21.0461,18.9745 20.9674,19.1020 20.9614,19.1118 20.9596,19.1107 20.9203,19.1553 20.8541,19.1745 18.9554,19.1745 18.8884,19.1548 18.8427,19.1020 18.8377,19.0895 18.8363,19.0851 18.8348,19.0807 18.7427,18.9313 18.6187,18.8073 18.4693,18.7152 18.3028,18.6600 18.3028,18.6600 18.2000,18.6495 15.1000,18.6495 15.1000,18.6495 14.9972,18.6600 14.9972,18.6600 14.8307,18.7152 14.8307,18.7152 14.6813,18.8073 14.5573,18.9313 14.4652,19.0807 14.4652,19.0807 14.4481,19.1323 14.4100,19.2472 14.4100,19.2472 14.4100,19.2472 14.3995,19.3500 13.9005,19.3500 13.9004,19.3491 13.8900,19.2472 13.8900,19.2472 13.8679,19.1807 13.8348,19.0807 13.7427,18.9313 13.6187,18.8073 13.4693,18.7152 13.3028,18.6600 13.3028,18.6600 13.2000,18.6495 13.2000,18.6495 11.6495,18.6495 11.5825,18.6298 11.5367,18.5770 11.5255,18.5255 11.5255,13.2959 11.5452,13.2289 11.5893,13.1904 11.5882,13.1886 11.5943,13.1848 11.5943,13.1848 11.7437,13.0927 11.7745,13.0618 11.8359,13.0283 11.8622,13.0255 14.9860,13.0255 15.0530,13.0452 15.0737,13.0618 17.3200,15.3081 17.3877,15.3759 17.4419,15.4300 17.5853,15.5259 17.5853,15.5259 17.7250,15.5837 17.7794,15.6276 17.7953,15.6593 17.8152,15.7193 17.8152,15.7193 17.8152,15.7193 17.9073,15.8687 18.0313,15.9927 18.1807,16.0848 18.3472,16.1400 18.4500,16.1505 21.5500,16.1505 21.6528,16.1400 21.8193,16.0848 21.9687,15.9927 22.0927,15.8687 22.1848,15.7193 22.2400,15.5528 22.2505,15.4500 22.2505,14.0500 22.2505,14.0500 22.7495,14.0500 22.7495,15.4500 22.7495,15.4500 22.7600,15.5528 22.7600,15.5528 22.7848,15.6276 22.8152,15.7193 22.9073,15.8687 23.0313,15.9927 23.1807,16.0848 23.3472,16.1400 23.4500,16.1505 26.5500,16.1505 26.6528,16.1400 26.8193,16.0848 26.9687,15.9927 27.0927,15.8687 27.1848,15.7193 27.1877,15.7105 27.2275,15.6530 27.2920,15.6262 27.3054,15.6255 31.6210,15.6255 31.6881,15.6452 31.7266,15.6844 31.7323,15.6937 31.8563,15.8177 32.0057,15.9098 32.1722,15.9650 32.2750,15.9755 33.1750,15.9755 33.1750,15.9755 33.1750,15.9755 33.2313,15.9697 33.2778,15.9650 33.4443,15.9098 33.5937,15.8177 33.7177,15.6937 33.8098,15.5443 33.8650,15.3778 33.8755,15.2750 33.8755,13.9250 33.8650,13.8222 33.8098,13.6557 33.7177,13.5063 33.5937,13.3823 33.4443,13.2902 33.2778,13.2350 33.2778,13.2350 33.1750,13.2245 32.2750,13.2245 32.2750,13.2245 32.1722,13.2350 32.1722,13.2350 32.0057,13.2902 32.0057,13.2902 31.8563,13.3823 31.7323,13.5063 31.6402,13.6557 31.6402,13.6557 31.5958,13.7895 31.5561,13.8469 31.4915,13.8738 31.4781,13.8745 27.3054,13.8745 27.2384,13.8548 27.1927,13.8020 27.1877,13.7895 27.1863,13.7851 27.1848,13.7807 27.0927,13.6313 26.9687,13.5073 26.8759,13.4501 26.8193,13.4152 26.8193,13.4152 26.8179,13.4147 26.6528,13.3600 26.6528,13.3600 26.5500,13.3495 23.4500,13.3495 23.4500,13.3495 23.3472,13.3600 23.3472,13.3600 23.1807,13.4152 23.1807,13.4152 23.0313,13.5073 22.9073,13.6313 22.8152,13.7807 22.8152,13.7807 22.7932,13.8469 22.7600,13.9472 22.7600,13.9472 22.7600,13.9472 22.7495,14.0500 22.2505,14.0500 22.2400,13.9472 22.1848,13.7807 22.0927,13.6313 21.9687,13.5073 21.8759,13.4501 21.8193,13.4152 21.8193,13.4152 21.8179,13.4147 21.6528,13.3600 21.6528,13.3600 21.5500,13.3495 18.4500,13.3495 18.4500,13.3495 18.3472,13.3600 18.3472,13.3600 18.1807,13.4152 18.1807,13.4152 18.0926,13.4695 18.0252,13.4880 17.9585,13.4670 17.9398,13.4517 15.9581,11.4700 15.9581,11.4700 15.8147,11.3741 15.8147,11.3741 15.6554,11.3081 15.6554,11.3081 15.4862,11.2745 15.4862,11.2745 11.8622,11.2745 11.8328,11.2659 11.8028,11.2593 11.7978,11.2556 11.7952,11.2548 11.7745,11.2382 11.7735,11.2372 11.7401,11.1759 11.7450,11.1062 11.7869,11.0502 11.8524,11.0258 11.8612,11.0255 17.6446,11.0255 17.7116,11.0452 17.7573,11.0980 17.7623,11.1105 17.7636,11.1144 17.7652,11.1193 17.8573,11.2687 17.9813,11.3927 18.1307,11.4848 18.2972,11.5400 18.4000,11.5505 21.5000,11.5505 21.6028,11.5400 21.7693,11.4848 21.9187,11.3927 22.0427,11.2687 22.1348,11.1193 22.1900,10.9528 22.2005,10.8500 22.2005,9.4500 22.2005,9.4500 22.6995,9.4500 22.6995,10.8500 22.6995,10.8500 22.7100,10.9528 22.7100,10.9528 22.7652,11.1193 22.7652,11.1193 22.7796,11.1426 22.8573,11.2687 22.9813,11.3927 23.1307,11.4848 23.2972,11.5400 23.4000,11.5505 26.5000,11.5505 26.6028,11.5400 26.7693,11.4848 26.9187,11.3927 27.0427,11.2687 27.1348,11.1193 27.1377,11.1105 27.1775,11.0530 27.2420,11.0262 27.2554,11.0255 31.5710,11.0255 31.6381,11.0452 31.6766,11.0844 31.6823,11.0937 31.8063,11.2177 31.9557,11.3098 32.1222,11.3650 32.2250,11.3755 33.1250,11.3755 33.1250,11.3755 33.1250,11.3755 33.1813,11.3697 33.2278,11.3650 33.3943,11.3098 33.5437,11.2177 33.6677,11.0937 33.7598,10.9443 33.8150,10.7778 33.8255,10.6750 33.8255,9.3250 33.8198,9.2693 33.8150,9.2222 33.8150,9.2222 33.8060,9.1951 33.7598,9.0557 33.6677,8.9063 33.5437,8.7823 33.4186,8.7051 33.3943,8.6902 33.3943,8.6902 33.3929,8.6897 33.2278,8.6350 33.2278,8.6350 33.1250,8.6245 32.2250,8.6245 32.2250,8.6245 32.1222,8.6350 32.1222,8.6350 31.9557,8.6902 31.9557,8.6902 31.8063,8.7823 31.6823,8.9063 31.5902,9.0557 31.5902,9.0557 31.5781,9.0920 31.5458,9.1895 31.5061,9.2469 31.4415,9.2738 31.4281,9.2745 27.2554,9.2745 27.1884,9.2548 27.1427,9.2020 27.1377,9.1895 27.1363,9.1851 27.1348,9.1807 27.0427,9.0313 26.9187,8.9073 26.8259,8.8501 26.7693,8.8152 26.7693,8.8152 26.7679,8.8147 26.6028,8.7600 26.6028,8.7600 26.5000,8.7495 23.4000,8.7495 23.4000,8.7495 23.2972,8.7600 23.2972,8.7600 23.1307,8.8152 23.1307,8.8152 22.9813,8.9073 22.8573,9.0313 22.7652,9.1807 22.7652,9.1807 22.7503,9.2256 22.7100,9.3472 22.7100,9.3472 22.7100,9.3472 22.6995,9.4500 22.2005,9.4500 22.1954,9.3999 22.1900,9.3472 22.1900,9.3472 22.1348,9.1807 22.0427,9.0313 21.9187,8.9073 21.8259,8.8501 21.7693,8.8152 21.7693,8.8152 21.7679,8.8147 21.6028,8.7600 21.6028,8.7600 21.5000,8.7495 18.4000,8.7495 18.4000,8.7495 18.2972,8.7600 18.2972,8.7600 18.1307,8.8152 18.1307,8.8152 17.9813,8.9073 17.8573,9.0313 17.7652,9.1807 17.7623,9.1895 17.7225,9.2470 17.6580,9.2738 17.6446,9.2745 11.6326,9.2745 11.6122,9.2685 11.5909,9.2673 11.5694,9.2560 11.5655,9.2548 11.5597,9.2509 11.5590,9.2504 11.5163,9.1951 11.5103,9.1254 11.5429,9.0636 11.5590,9.0496 11.5597,9.0491 11.5835,9.0407 11.6037,9.0292 11.6140,9.0298 11.6255,9.0257 11.6326,9.0255 15.1362,9.0255 15.1362,9.0255 15.3054,8.9919 15.4647,8.9259 15.6081,8.8300 17.6757,6.7624 17.7370,6.7290 17.8067,6.7339 17.8511,6.7624 17.9563,6.8677 18.1057,6.9598 18.2722,7.0150 18.3750,7.0255 21.4750,7.0255 21.5778,7.0150 21.7443,6.9598 21.8937,6.8677 22.0177,6.7437 22.1098,6.5943 22.1650,6.4278 22.1755,6.3250 22.1755,4.9250 22.1755,4.9250 22.6745,4.9250 22.6745,6.3250 22.6745,6.3250 22.6850,6.4278 22.6850,6.4278 22.7156,6.5202 22.7402,6.5943 22.8323,6.7437 22.9563,6.8677 23.1057,6.9598 23.2722,7.0150 23.3750,7.0255 26.4750,7.0255 26.5778,7.0150 26.7443,6.9598 26.8937,6.8677 27.0177,6.7437 27.1098,6.5943 27.1127,6.5855 27.1525,6.5280 27.2170,6.5012 27.2304,6.5005 31.4541,6.5005 31.5211,6.5202 31.5596,6.5643 31.5614,6.5632 31.5652,6.5693 31.5652,6.5693 31.6573,6.7187 31.7813,6.8427 31.9307,6.9348 32.0972,6.9900 32.2000,7.0005 33.1000,7.0005 33.1000,7.0005 33.1000,7.0005 33.1563,6.9947 33.2028,6.9900 33.3693,6.9348 33.5187,6.8427 33.6427,6.7187 33.7348,6.5693 33.7900,6.4028 33.8005,6.3000 33.8005,4.9500 33.8005,4.9500 34.5995,4.9500 34.5995,6.3000 34.5995,6.3000 34.6100,6.4028 34.6100,6.4028 34.6652,6.5693 34.6652,6.5693 34.6752,6.5855 34.7573,6.7187 34.8813,6.8427 35.0307,6.9348 35.1972,6.9900 35.3000,7.0005 36.2000,7.0005 36.2000,7.0005 36.2000,7.0005 36.2563,6.9947 36.3028,6.9900 36.4693,6.9348 36.6187,6.8427 36.6864,6.7749 36.7478,6.7415 36.8174,6.7464 36.8618,6.7749 38.0882,8.0013 38.1217,8.0626 38.1245,8.0890 38.1245,9.0005 38.1048,9.0675 38.0520,9.1133 38.0005,9.1245 36.9709,9.1245 36.9039,9.1048 36.8654,9.0607 36.8636,9.0618 36.8598,9.0557 36.7677,8.9063 36.6437,8.7823 36.5186,8.7051 36.4943,8.6902 36.4943,8.6902 36.4929,8.6897 36.3278,8.6350 36.3278,8.6350 36.2250,8.6245 35.3250,8.6245 35.3250,8.6245 35.2222,8.6350 35.2222,8.6350 35.0557,8.6902 35.0557,8.6902 34.9063,8.7823 34.7823,8.9063 34.6902,9.0557 34.6902,9.0557 34.6711,9.1133 34.6350,9.2222 34.6350,9.2222 34.6350,9.2222 34.6245,9.3250 34.6245,10.6750 34.6245,10.6750 34.6350,10.7778 34.6350,10.7778 34.6902,10.9443 34.6902,10.9443 34.7139,10.9827 34.7823,11.0937 34.9063,11.2177 35.0557,11.3098 35.2222,11.3650 35.3250,11.3755 36.2250,11.3755 36.2250,11.3755 36.2250,11.3755 36.2813,11.3697 36.3278,11.3650 36.4943,11.3098 36.6437,11.2177 36.7677,11.0937 36.8598,10.9443 36.8598,10.9443 36.8636,10.9382 36.8654,10.9393 36.9047,10.8947 36.9709,10.8755 38.0005,10.8755 38.0675,10.8952 38.1133,10.9480 38.1245,10.9995 38.1245,12.1860 38.1048,12.2530 38.0882,12.2737 36.9243,13.4376 36.8630,13.4710 36.7933,13.4661 36.7489,13.4376 36.6937,13.3823 36.6937,13.3823 36.5443,13.2902 36.3778,13.2350 36.3778,13.2350 36.2750,13.2245 35.3750,13.2245 35.3750,13.2245 35.2722,13.2350 35.2722,13.2350 35.1057,13.2902 35.1057,13.2902 34.9563,13.3823 34.8323,13.5063 34.7402,13.6557 34.7402,13.6557 34.6850,13.8222 34.6850,13.8222 34.6850,13.8222 34.6745,13.9250 34.6745,15.2750 34.6745,15.2750 34.6850,15.3778 34.6850,15.3778 34.7341,15.5259 34.7402,15.5443 34.8323,15.6937 34.9563,15.8177 35.1057,15.9098 35.2722,15.9650 35.3750,15.9755 36.2750,15.9755 36.2750,15.9755 36.2750,15.9755 36.3313,15.9697 36.3778,15.9650 36.5443,15.9098 36.6937,15.8177 36.8177,15.6937 36.9098,15.5443 36.9098,15.5443 36.9136,15.5382 36.9154,15.5393 36.9547,15.4947 37.0209,15.4755 37.0862,15.4755 37.0862,15.4755 37.2554,15.4419 37.4147,15.3759 37.5581,15.2800 39.6800,13.1581 39.7759,13.0147 39.8419,12.8554 39.8755,12.6862 39.8755,12.5138 39.8755,10.9995 39.8952,10.9325 39.9480,10.8867 39.9995,10.8755 44.2041,10.8755 44.2711,10.8952 44.3096,10.9393 44.3114,10.9382 44.3152,10.9443 44.3152,10.9443 44.4073,11.0937 44.5313,11.2177 44.6807,11.3098 44.8472,11.3650 44.9500,11.3755 45.7500,11.3755 45.7500,11.3755 45.7500,11.3755 45.8063,11.3697 45.8528,11.3650 46.0193,11.3098 46.1687,11.2177 46.2927,11.0937 46.3323,11.0295 46.3843,10.9827 46.4532,10.9715 46.5173,10.9994 46.5255,11.0069 46.6331,11.1144 46.7732,11.2162 46.9276,11.2949 47.0923,11.3484 47.2634,11.3755 47.2634,11.3755 47.4366,11.3755 47.4366,11.3755 47.6077,11.3484 47.7724,11.2949 47.9268,11.2162 48.0669,11.1144 48.1894,10.9919 48.2497,10.9090 48.3050,10.8663 48.3746,10.8603 48.4364,10.8929 48.4503,10.9090 48.5106,10.9919 48.6331,11.1144 48.7732,11.2162 48.9276,11.2949 49.0923,11.3484 49.2634,11.3755 49.2634,11.3755 49.4366,11.3755 49.4366,11.3755 49.6077,11.3484 49.7724,11.2949 49.9268,11.2162 50.0669,11.1144 50.1894,10.9919 50.2369,10.9266 50.2922,10.8839 50.3372,10.8755 53.8755,10.8755 53.9425,10.8952 53.9883,10.9480 53.9989,10.9969 53.9993,10.9969 53.9995,10.9993 53.9995,10.9995 53.9995,11.0000 54.0100,11.1028 54.0100,11.1028 54.0549,11.2382 54.0652,11.2693 54.1573,11.4187 54.2813,11.5427 54.4307,11.6348 54.5972,11.6900 54.7000,11.7005 56.1000,11.7005 56.2028,11.6900 56.3693,11.6348 56.5187,11.5427 56.6427,11.4187 56.7348,11.2693 56.7900,11.1028 56.8005,11.0000 56.8005,7.9000 56.7997,7.8923 56.7900,7.7972 56.7900,7.7972 56.7374,7.6385 56.7350,7.5687 56.7707,7.5086 56.8333,7.4774 56.8551,7.4755 59.9255,7.4755 59.9925,7.4952 60.0383,7.5480 60.0495,7.5995 60.0495,9.0000 60.0495,9.0000 60.0600,9.1028 60.0600,9.1028 60.1007,9.2256 60.1152,9.2693 60.2073,9.4187 60.3313,9.5427 60.4807,9.6348 60.6472,9.6900 60.7500,9.7005 62.3610,9.7005 62.4280,9.7202 62.4487,9.7368 65.4200,12.7081 65.5091,12.7972 65.5419,12.8300 65.6853,12.9259 65.6853,12.9259 65.8446,12.9919 65.8446,12.9919 66.0138,13.0255 66.0138,13.0255 66.0138,13.0255 72.0614,13.0255 72.1285,13.0452 72.1742,13.0980 72.1791,13.1105 72.2152,13.2193 72.3073,13.3687 72.4313,13.4927 72.5656,13.5755 72.6123,13.6275 72.6245,13.6811 72.6245,18.9689 72.6048,19.0360 72.5656,19.0745 72.5395,19.0906 72.4313,19.1573 72.3073,19.2813 72.2152,19.4307 72.2152,19.4307 72.2088,19.4500 72.1600,19.5972 72.1600,19.5972 72.1600,19.5972 72.1495,19.7000 72.1495,21.3000 72.1495,21.3000 72.1600,21.4028 72.1600,21.4028 72.2152,21.5693 72.2152,21.5693 72.2226,21.5813 72.3073,21.7187 72.4313,21.8427 72.5807,21.9348 72.7472,21.9900 72.8500,22.0005 74.1500,22.0005 74.2528,21.9900 74.4193,21.9348 74.5687,21.8427 74.6927,21.7187 74.7848,21.5693 74.7848,21.5693 74.7884,21.5634 74.8404,21.5167 74.9094,21.5055 74.9734,21.5333 74.9817,21.5409 75.1205,21.6797 75.1205,21.6797 75.2924,21.8046 75.4818,21.9011 75.6839,21.9668 75.7500,21.9772 75.7500,20.9330 75.8070,20.9659 75.9342,21.0000 76.0658,21.0000 76.1930,20.9659 76.2500,20.9330 76.2500,21.9772 76.3161,21.9668 76.3161,21.9668 76.5182,21.9011 76.7076,21.8046 76.8795,21.6797 76.8795,21.6797 77.0297,21.5295 77.0297,21.5295 77.1546,21.3576 77.2511,21.1682 77.3168,20.9661 77.3168,20.9661 77.3500,20.7562 77.3500,20.7500 76.4330,20.7500 76.4659,20.6930 76.5000,20.5658 76.5000,20.4342 76.4659,20.3070 76.4330,20.2500 77.3500,20.2500 77.3500,20.2438 77.3168,20.0339 77.3168,20.0339 77.2511,19.8318 77.1546,19.6424 77.0297,19.4705 77.0297,19.4705 76.8795,19.3203 76.8795,19.3203 76.7076,19.1954 76.5182,19.0989 76.3161,19.0332 76.2500,19.0228 76.2500,20.0670 76.1930,20.0341 76.0658,20.0000 75.9342,20.0000 75.8070,20.0341 75.7500,20.0670 75.7500,19.0228 75.7500,19.0228 75.6839,19.0332 75.4818,19.0989 75.2924,19.1954 75.1205,19.3203 74.9817,19.4591 74.9203,19.4926 74.8507,19.4876 74.7947,19.4458 74.7884,19.4366 74.7505,19.3750 74.6927,19.2813 74.5687,19.1573 74.4344,19.0745 74.3877,19.0225 74.3755,18.9689 74.3755,13.6811 74.3952,13.6140 74.4344,13.5755 74.5687,13.4927 74.6927,13.3687 74.7848,13.2193 74.7848,13.2193 74.7884,13.2134 74.8404,13.1667 74.9094,13.1555 74.9734,13.1833 74.9817,13.1909 75.1205,13.3297 75.1205,13.3297 75.2924,13.4546 75.4818,13.5511 75.6839,13.6168 75.7500,13.6272 75.7500,12.5830 75.8070,12.6159 75.9342,12.6500 76.0658,12.6500 76.1930,12.6159 76.2500,12.5830 76.2500,13.6272 76.3161,13.6168 76.3161,13.6168 76.5182,13.5511 76.7076,13.4546 76.8795,13.3297 76.8795,13.3297 77.0297,13.1795 77.0297,13.1795 77.1546,13.0076 77.2511,12.8182 77.3168,12.6161 77.3168,12.6161 77.3500,12.4062 77.3500,12.4000 76.4330,12.4000 76.4659,12.3430 76.5000,12.2158 76.5000,12.0842 76.4659,11.9570 76.4330,11.9000 77.3500,11.9000 77.3500,11.8938 77.3168,11.6839 77.3168,11.6839 77.2511,11.4818 77.1546,11.2924 77.0297,11.1205 77.0297,11.1205 76.8795,10.9703 76.8795,10.9703 76.7076,10.8454 76.5182,10.7489 76.3161,10.6832 76.2500,10.6728 76.2500,11.7170 76.1930,11.6841 76.0658,11.6500 75.9342,11.6500 75.8070,11.6841 75.7500,11.7170 75.7500,10.6728 75.7500,10.6728 75.6839,10.6832 75.4818,10.7489 75.2924,10.8454 75.1205,10.9703 74.9817,11.1091 74.9203,11.1426 74.8507,11.1376 74.7947,11.0958 74.7884,11.0866 74.7512,11.0262 74.6927,10.9313 74.5687,10.8073 74.4740,10.7489 74.4193,10.7152 74.4193,10.7152 74.4179,10.7147 74.2528,10.6600 74.2528,10.6600 74.1500,10.6495 72.8500,10.6495 72.8500,10.6495 72.7472,10.6600 72.7472,10.6600 72.5807,10.7152 72.5807,10.7152 72.4313,10.8073 72.3073,10.9313 72.2152,11.0807 72.2152,11.0807 72.2079,11.1028 72.1836,11.1759 72.1791,11.1895 72.1393,11.2469 72.0748,11.2738 72.0614,11.2745 66.5140,11.2745 66.4470,11.2548 66.4263,11.2382 63.6868,8.4987 63.6533,8.4374 63.6505,8.4110 63.6505,7.7820 65.0500,7.7820 65.0500,8.0180 65.0808,8.2519 65.1419,8.4798 65.2322,8.6978 65.2322,8.6978 65.3501,8.9022 65.3501,8.9022 65.4127,8.9837 66.2490,8.1475 66.2740,8.2079 66.3451,8.3144 66.4356,8.4049 66.5421,8.4760 66.6025,8.5010 65.7663,9.3373 65.8478,9.3999 65.8478,9.3999 66.0522,9.5178 66.0522,9.5178 66.2702,9.6081 66.2702,9.6081 66.4981,9.6692 66.7320,9.7000 66.7320,9.7000 66.9680,9.7000 66.9680,9.7000 67.2019,9.6692 67.4298,9.6081 67.6478,9.5178 67.6478,9.5178 67.8522,9.3998 67.9337,9.3373 67.9337,9.3373 67.0975,8.5010 67.1579,8.4760 67.2644,8.4049 67.3549,8.3144 67.4260,8.2079 67.4510,8.1475 68.2873,8.9837 68.2873,8.9837 68.3499,8.9022 68.4678,8.6978 68.4678,8.6978 68.5581,8.4798 68.6192,8.2519 68.6500,8.0180 68.6500,8.0180 68.6500,7.7820 68.6500,7.7820 68.6192,7.5481 68.5581,7.3202 68.4678,7.1022 68.4678,7.1022 68.3499,6.8978 68.3499,6.8978 68.2873,6.8163 67.4510,7.6525 67.4260,7.5921 67.3549,7.4856 67.2644,7.3951 67.1579,7.3240 67.0975,7.2990 67.9337,6.4627 67.8522,6.4001 67.8522,6.4001 67.6478,6.2822 67.6478,6.2822 67.4298,6.1919 67.4298,6.1919 67.2019,6.1308 66.9680,6.1000 66.7320,6.1000 66.4981,6.1308 66.2702,6.1919 66.0522,6.2822 66.0522,6.2822 65.8478,6.4001 65.8478,6.4002 65.7663,6.4627 65.7663,6.4627 66.6025,7.2990 66.5421,7.3240 66.4356,7.3951 66.3451,7.4856 66.2740,7.5921 66.2490,7.6525 65.4127,6.8163 65.4127,6.8163 65.3501,6.8978 65.3501,6.8978 65.2322,7.1022 65.2322,7.1022 65.1419,7.3202 65.0808,7.5481 65.0500,7.7820 63.6505,7.7820 63.6505,6.8000 63.6505,6.8000 63.6400,6.6972 63.6400,6.6972 63.5911,6.5497 63.5911,6.5497 63.5848,6.5307 63.5848,6.5307 63.5848,6.5307 63.4927,6.3813 63.3687,6.2573 63.2193,6.1652 63.0528,6.1100 63.0528,6.1100 62.9500,6.0995 62.9500,6.0995 61.3390,6.0995 61.2720,6.0798 61.2513,6.0632 61.1081,5.9200 61.1081,5.9200 61.1081,5.9200 60.9647,5.8241 60.9647,5.8241 60.8054,5.7581 60.8054,5.7581 60.6362,5.7245 60.6362,5.7245 48.6362,5.7245 48.4638,5.7245 48.4638,5.7245 48.2946,5.7581 48.2946,5.7581 48.1353,5.8241 48.1353,5.8241 47.9919,5.9200 47.9919,5.9200 47.0691,6.8427 46.7919,7.1200 46.7375,7.1743 46.6700,7.2419 46.5741,7.3853 46.5741,7.3853 46.5081,7.5446 46.5081,7.5446 46.4745,7.7138 46.4745,8.7888 46.4548,8.8558 46.4020,8.9016 46.3329,8.9115 46.2693,8.8825 46.2628,8.8765 46.1687,8.7823 46.1687,8.7823 46.0436,8.7051 46.0193,8.6902 46.0193,8.6902 46.0179,8.6897 45.8528,8.6350 45.8528,8.6350 45.7500,8.6245 44.9500,8.6245 44.9500,8.6245 44.8472,8.6350 44.8472,8.6350 44.6807,8.6902 44.6807,8.6902 44.5313,8.7823 44.4073,8.9063 44.4073,8.9063 44.3174,9.0520 44.3114,9.0618 44.3096,9.0607 44.2703,9.1053 44.2041,9.1245 39.9995,9.1245 39.9325,9.1048 39.8867,9.0520 39.8755,9.0005 39.8755,7.5888 39.8755,7.5888 39.8596,7.5086 39.8419,7.4196 39.8276,7.3853 39.7759,7.2603 39.7759,7.2603 39.6800,7.1169 39.6264,7.0633 39.5581,6.9950 38.5684,6.0053 37.5081,4.9450 37.5081,4.9450 37.3647,4.8491 37.3647,4.8491 37.2054,4.7831 37.2054,4.7831 37.0362,4.7495 37.0362,4.7495 36.9459,4.7495 36.8789,4.7298 36.8404,4.6857 36.8386,4.6868 36.8348,4.6807 36.7427,4.5313 36.6187,4.4073 36.4693,4.3152 36.3028,4.2600 36.3028,4.2600 36.2000,4.2495 35.3000,4.2495 35.3000,4.2495 35.1972,4.2600 35.1972,4.2600 35.0307,4.3152 35.0307,4.3152 34.8813,4.4073 34.7573,4.5313 34.6652,4.6807 34.6652,4.6807 34.6426,4.7488 34.6100,4.8472 34.6100,4.8472 34.6100,4.8472 34.5995,4.9500 33.8005,4.9500 33.8000,4.9450 33.7900,4.8472 33.7900,4.8472 33.7817,4.8222 33.7348,4.6807 33.6427,4.5313 33.5187,4.4073 33.3693,4.3152 33.2028,4.2600 33.2028,4.2600 33.1000,4.2495 32.2000,4.2495 32.2000,4.2495 32.0972,4.2600 32.0972,4.2600 31.9307,4.3152 31.9307,4.3152 31.7813,4.4073 31.6573,4.5313 31.6573,4.5313 31.5674,4.6770 31.5614,4.6868 31.5596,4.6857 31.5203,4.7303 31.4541,4.7495 27.2304,4.7495 27.1634,4.7298 27.1177,4.6770 27.1127,4.6645 27.1113,4.6601 27.1098,4.6557 27.0177,4.5063 26.8937,4.3823 26.7849,4.3152 26.7443,4.2902 26.7443,4.2902 26.7429,4.2897 26.5778,4.2350 26.5778,4.2350 26.4750,4.2245 23.3750,4.2245 23.3750,4.2245 23.2722,4.2350 23.2722,4.2350 23.1057,4.2902 23.1057,4.2902 22.9563,4.3823 22.8323,4.5063 22.7402,4.6557 22.7402,4.6557 22.7302,4.6857 22.6850,4.8222 22.6850,4.8222 22.6850,4.8222 22.6745,4.9250 22.1755,4.9250 22.1676,4.8472 22.1650,4.8222 22.1650,4.8222 22.1427,4.7550 22.1098,4.6557 22.0177,4.5063 21.8937,4.3823 21.7849,4.3152 21.7443,4.2902 21.7443,4.2902 21.7429,4.2897 21.5778,4.2350 21.5778,4.2350 21.4750,4.2245 18.3750,4.2245 18.3750,4.2245 18.2722,4.2350 18.2722,4.2350 18.1057,4.2902 18.1057,4.2902 17.9563,4.3823 17.8323,4.5063 17.7402,4.6557 17.7373,4.6645 17.6975,4.7220 17.6330,4.7488 17.6196,4.7495 17.4888,4.7495 17.3196,4.7831 17.3196,4.7831 17.1603,4.8491 17.1603,4.8491 17.0169,4.9450 17.0169,4.9450 14.7237,7.2382 14.6624,7.2717 14.6360,7.2745 11.6326,7.2745 11.6121,7.2685 11.5909,7.2673 11.5694,7.2560 11.5655,7.2548 11.5597,7.2508 11.5586,7.2500 11.5159,7.1947 11.5099,7.1251 11.5425,7.0633 11.5586,7.0494 11.6416,6.9890 11.7640,6.8666 11.8658,6.7265 11.9444,6.5723 11.9979,6.4076 11.9991,6.4000 10.9303,6.4000 10.9501,6.3803 10.9994,6.2947 11.0250,6.1994 11.0250,6.1006 10.9994,6.0053 10.9501,5.9197 10.9303,5.9000 11.9991,5.9000 11.9991,5.9000 11.9979,5.8924 11.9444,5.7277 11.8658,5.5735 11.7640,5.4334 11.6416,5.3110 11.5015,5.2092 11.3473,5.1306 11.1826,5.0771 11.0116,5.0500 10.9000,5.0500 10.9000,5.8697 10.8803,5.8499 10.7947,5.8006 10.6994,5.7750 10.6006,5.7750 10.5053,5.8006 10.4197,5.8499 10.4000,5.8697 10.4000,5.0500 10.2884,5.0500 10.1174,5.0771 9.9527,5.1306 9.7985,5.2092 9.6584,5.3110 9.5360,5.4334 9.4342,5.5735 9.3556,5.7277 9.3021,5.8924 9.3009,5.9000 9.3009,5.9000 10.3697,5.9000 10.3499,5.9197 10.3006,6.0053 10.2750,6.1006 10.2750,6.1994 10.3006,6.2947 10.3499,6.3803 10.3697,6.4000 9.3009,6.4000 9.3021,6.4076 9.3556,6.5723 9.4342,6.7265 9.5360,6.8666 9.6584,6.9890 9.7414,7.0494 9.7841,7.1047 9.7901,7.1743 9.7575,7.2361 9.7415,7.2500 9.6581,7.3106 9.5356,7.4331 9.5356,7.4331 9.5356,7.4331 9.4953,7.4885 9.4338,7.5732 9.3551,7.7276 9.3016,7.8923 9.2817,8.0180 9.2745,8.0634 9.2745,8.2366 9.3016,8.4077 9.3551,8.5724 9.4338,8.7268 9.5356,8.8669 9.6581,8.9894 9.7410,9.0497 9.7582,9.0719 9.7777,9.0920 9.7792,9.0992 9.7837,9.1050 9.7861,9.1330 9.7917,9.1605 9.7890,9.1673 9.7897,9.1746 9.7766,9.1994 9.7664,9.2256 9.7589,9.2329 9.7571,9.2364 9.7411,9.2502 9.7404,9.2507 9.6747,9.2743 9.6674,9.2745 9.1638,9.2745 8.9946,9.3081 8.9946,9.3081 8.8353,9.3741 8.8353,9.3741 8.6919,9.4700 8.6919,9.4700 7.3546,10.8073 6.9419,11.2200 6.9070,11.2548 6.8200,11.3419 6.7241,11.4853 6.7241,11.4853 6.6581,11.6446 6.6581,11.6446 6.6245,11.8138 2.0255,11.8138 2.0255,4.1974 2.0452,4.1303 2.0980,4.0846 2.1671,4.0746 2.2307,4.1036 2.2600,4.1411 2.3078,4.2350 2.3450,4.3078 2.4699,4.4798 2.6202,4.6301 2.7922,4.7550 2.7922,4.7550 2.7922,4.7551 2.9816,4.8516 3.1838,4.9172 3.3937,4.9505 3.3937,4.9505 3.6063,4.9505 3.6063,4.9505 3.8162,4.9172 4.0184,4.8516 4.2078,4.7551 4.2534,4.7220 4.3798,4.6301 4.3798,4.6301 4.3798,4.6301 4.5301,4.4798 4.5301,4.4798 4.5301,4.4798 4.6550,4.3078 4.6550,4.3078 4.6551,4.3078 4.7516,4.1184 4.8172,3.9162 4.8505,3.7063 4.8505,3.4937 4.8172,3.2838 4.7516,3.0816 4.6551,2.8922 4.6550,2.8922 4.6550,2.8922 4.5301,2.7202 4.3798,2.5699 4.2078,2.4450 4.0184,2.3484 4.0184,2.3484 4.0184,2.3484 3.8162,2.2828 3.8162,2.2828 3.8162,2.2828 3.7482,2.2720 3.6850,2.2420 3.6481,2.1827 3.6491,2.1129 3.6877,2.0546 3.7517,2.0265 3.7676,2.0255 76.7324,2.0255 Z"/> 
<path style="fill:none;  stroke:#FFFFFF; stroke-width:0.0500; stroke-opacity:1;  stroke-linecap:round; stroke-linejoin:round;fill:none" d="M 0.0250,0.0250 80.5750,0.0250 80.5750,31.3250 0.0250,31.3250 Z"/> 
</g>
<g style="fill:#000000; fill-opacity:1.0000; stroke:none;">
<circle cx="3.5000" cy="3.6000" r="0.1750"/> 
</g>
<g style="fill:#000000; fill-opacity:1.0000; stroke:none;">
<circle cx="3.5000" cy="27.6000" r="0.1750"/> 
</g>
<g style="fill:#000000; fill-opacity:1.0000; stroke:none;">
<circle cx="77.0000" cy="27.6000" r="0.1750"/> 
</g>
<g style="fill:#000000; fill-opacity:1.0000; stroke:none;">
<circle cx="61.8500" cy="7.9000" r="0.1750"/> 
</g>
<g style="fill:#000000; fill-opacity:1.0000; stroke:none;">
<circle cx="66.8500" cy="7.9000" r="0.1750"/> 
</g>
<g style="fill:#000000; fill-opacity:1.0000; stroke:none;">
<circle cx="65.0750" cy="22.6500" r="0.1750"/> 
</g>
<g style="fill:#000000; fill-opacity:1.0000; stroke:none;">
<circle cx="65.0750" cy="20.1500" r="0.1750"/> 
</g>
<g style="fill:#000000; fill-opacity:1.0000; stroke:none;">
<circle cx="77.0000" cy="3.6000" r="0.1750"/> 
</g>
<g style="fill:#000000; fill-opacity:1.0000; stroke:none;">
<circle cx="73.5000" cy="12.1500" r="0.1750"/> 
</g>
<g style="fill:#000000; fill-opacity:1.0000; stroke:none;">
<circle cx="76.0000" cy="12.1500" r="0.1750"/> 
</g>
<g style="fill:#000000; fill-opacity:1.0000; stroke:none;">
<circle cx="10.6500" cy="12.1500" r="0.1750"/> 
</g>
<g style="fill:#000000; fill-opacity:1.0000; stroke:none;">
<circle cx="10.6500" cy="10.1500" r="0.1750"/> 
</g>
<g style="fill:#000000; fill-opacity:1.0000; stroke:none;">
<circle cx="10.6500" cy="8.1500" r="0.1750"/> 
</g>
<g style="fill:#000000; fill-opacity:1.0000; stroke:none;">
<circle cx="10.6500" cy="6.1500" r="0.1750"/> 
</g>
<g style="fill:#000000; fill-opacity:1.0000; stroke:none;">
<circle cx="55.4750" cy="20.1000" r="0.1750"/> 
</g>
<g style="fill:#000000; fill-opacity:1.0000; stroke:none;">
<circle cx="55.4750" cy="22.6000" r="0.1750"/> 
</g>
<g style="fill:#000000; fill-opacity:1.0000; stroke:none;">
<circle cx="73.5000" cy="20.5000" r="0.1750"/> 
</g>
<g style="fill:#000000; fill-opacity:1.0000; stroke:none;">
<circle cx="76.0000" cy="20.5000" r="0.1750"/> 
</g>
<g style="fill:#000000; fill-opacity:1.0000; stroke:none;">
<circle cx="45.8500" cy="20.1000" r="0.1750"/> 
</g>
<g style="fill:#000000; fill-opacity:1.0000; stroke:none;">
<circle cx="45.8500" cy="22.6000" r="0.1750"/> 
</g>
<g style="fill:#000000; fill-opacity:1.0000; stroke:none;">
<circle cx="45.3500" cy="10.0000" r="0.1750"/> 
</g>
<g style="fill:#000000; fill-opacity:1.0000; stroke:none;">
<circle cx="47.3500" cy="10.0000" r="0.1750"/> 
</g>
<g style="fill:#000000; fill-opacity:1.0000; stroke:none;">
<circle cx="49.3500" cy="10.0000" r="0.1750"/> 
</g> 
</g>
    <text x="86.3092" y="40.33888888888889" font-size="3" font-family="monospace" font-weight="normal" letter-spacing="0" text-anchor="end" fill="red">File: pcb.svg | Scale: 1.0:1 | Date: Mar/14 16:11</text>
  </g>
</svg>
